<svg xmlns="http://www.w3.org/2000/svg" version="1.1" xmlns:xlink="http://www.w3.org/1999/xlink" xmlns:svgjs="http://svgjs.dev/svgjs" width="1000" height="212" viewBox="0 0 1000 212"><g transform="matrix(1,0,0,1,-0.6060606060606233,-0.3907698511082316)"><svg viewBox="0 0 396 84" data-background-color="#ffffff" preserveAspectRatio="xMidYMid meet" height="212" width="1000" xmlns="http://www.w3.org/2000/svg" xmlns:xlink="http://www.w3.org/1999/xlink"><g id="tight-bounds" transform="matrix(1,0,0,1,0.2400000000000091,0.15483333723156534)"><svg viewBox="0 0 395.52 83.69033332553686" height="83.69033332553686" width="395.52"><g><svg viewBox="0 0 395.52 83.69033332553686" height="83.69033332553686" width="395.52"><g><svg viewBox="0 0 395.52 83.69033332553686" height="83.69033332553686" width="395.52"><g><svg viewBox="0 0 395.52 83.69033332553686" height="83.69033332553686" width="395.52"><g><svg viewBox="0 0 395.52 30.903115233390462" height="30.903115233390462" width="395.52"><g transform="matrix(1,0,0,1,0,0)"><svg width="395.52" viewBox="-0.45000001788139343 -37.900001525878906 495.8900146484375 38.75" height="30.903115233390462" data-palette-color="#111111"><path d="M25.75 0L17.8 0 16.4-7.6 8.7-7.6 7.35 0-0.45 0 7.95-34.65 17.35-34.65 25.75 0ZM12.55-28.9L9.75-13.25 15.4-13.25 12.55-28.9ZM33.95 0.85Q30.8 0.85 29.05-1 27.3-2.85 27.3-6.05L27.3-6.05 27.3-37.1 34.85-37.9 34.85-6.4Q34.85-5.15 35.9-5.15L35.9-5.15Q36.2-5.15 36.8-5.3L36.8-5.3 38.15-0.1Q37.35 0.3 36.25 0.58 35.15 0.85 33.95 0.85L33.95 0.85ZM51.25-32.35Q48.75-32.35 48.75-29.55L48.75-29.55 48.75-26.55 53.6-26.55 52.75-21.25 48.75-21.25 48.75 0 41.2 0 41.2-21.25 38.2-21.25 38.2-26.55 41.2-26.55 41.2-29.25Q41.2-33.2 43.5-35.55 45.8-37.9 50.1-37.9L50.1-37.9Q53.5-37.9 56.45-36.3L56.45-36.3 54.45-31.5Q52.75-32.35 51.25-32.35L51.25-32.35ZM68.39-27.3Q69.44-27.3 70.49-26.9L70.49-26.9 69.24-19.65Q68.34-19.95 67.39-19.95L67.39-19.95Q65.54-19.95 64.62-18.53 63.69-17.1 63.09-14.25L63.09-14.25 63.09 0 55.54 0 55.54-26.55 62.09-26.55 62.64-22.2Q64.54-27.3 68.39-27.3L68.39-27.3ZM92.64-13.8Q92.64-12.2 92.49-11.05L92.49-11.05 78.99-11.05Q79.24-7.45 80.32-6.08 81.39-4.7 83.44-4.7L83.44-4.7Q84.79-4.7 86.04-5.23 87.29-5.75 88.74-6.85L88.74-6.85 91.84-2.75Q88.14 0.85 82.89 0.85L82.89 0.85Q77.29 0.85 74.39-2.83 71.49-6.5 71.49-13.1L71.49-13.1Q71.49-19.7 74.27-23.55 77.04-27.4 82.19-27.4L82.19-27.4Q87.09-27.4 89.87-23.93 92.64-20.45 92.64-13.8L92.64-13.8ZM85.29-15.6L85.29-15.95Q85.29-19.35 84.62-20.88 83.94-22.4 82.24-22.4L82.24-22.4Q80.74-22.4 79.97-20.93 79.19-19.45 78.99-15.6L78.99-15.6 85.29-15.6ZM108.94-37.9L116.49-37.1 116.49 0 109.74 0 109.49-2.8Q108.34-1.1 106.89-0.13 105.44 0.85 103.39 0.85L103.39 0.85Q99.29 0.85 97.14-2.83 94.99-6.5 94.99-13.3L94.99-13.3Q94.99-17.55 96.14-20.75 97.29-23.95 99.34-25.68 101.39-27.4 103.99-27.4L103.99-27.4Q106.99-27.4 108.94-24.95L108.94-24.95 108.94-37.9ZM105.84-4.7Q107.59-4.7 108.94-7.3L108.94-7.3 108.94-19.7Q108.29-20.8 107.64-21.33 106.99-21.85 106.14-21.85L106.14-21.85Q102.74-21.85 102.74-13.3L102.74-13.3Q102.74-8.45 103.56-6.58 104.39-4.7 105.84-4.7L105.84-4.7ZM139.98-35.5Q143.23-35.5 145.71-34.4 148.18-33.3 150.23-31.1L150.23-31.1 146.78-27Q143.78-29.75 140.83-29.75L140.83-29.75Q139.13-29.75 138.18-28.75 137.23-27.75 137.23-26.1L137.23-26.1Q137.23-24.5 138.33-23.48 139.43-22.45 142.58-21.1L142.58-21.1Q145.48-19.8 147.28-18.43 149.08-17.05 150.01-15.05 150.93-13.05 150.93-10.1L150.93-10.1Q150.93-6.95 149.51-4.45 148.08-1.95 145.43-0.55 142.78 0.85 139.23 0.85L139.23 0.85Q135.53 0.85 132.83-0.45 130.13-1.75 127.98-4.05L127.98-4.05 131.73-8.2Q133.53-6.6 135.16-5.78 136.78-4.95 138.63-4.95L138.63-4.95Q140.68-4.95 141.73-6.18 142.78-7.4 142.78-9.5L142.78-9.5Q142.78-11.4 141.73-12.63 140.68-13.85 137.93-14.95L137.93-14.95Q133.13-16.95 131.13-19.38 129.13-21.8 129.13-25.5L129.13-25.5Q129.13-28.45 130.53-30.73 131.93-33 134.41-34.25 136.88-35.5 139.98-35.5L139.98-35.5ZM173.33-26.55L173.33 0 166.73 0 166.43-3.05Q164.03 0.85 160.08 0.85L160.08 0.85Q157.18 0.85 155.51-1.25 153.83-3.35 153.83-6.8L153.83-6.8 153.83-26.55 161.38-26.55 161.38-7.1Q161.38-5.95 161.78-5.35 162.18-4.75 162.93-4.75L162.93-4.75Q164.53-4.75 165.78-7.55L165.78-7.55 165.78-26.55 173.33-26.55ZM185.93-27.4Q188.38-27.4 190.53-26.55 192.68-25.7 194.28-24.15L194.28-24.15 191.53-20.1Q188.78-22 186.58-22L186.58-22Q185.38-22 184.7-21.4 184.03-20.8 184.03-19.75L184.03-19.75Q184.03-18.6 184.88-17.88 185.73-17.15 188.53-16L188.53-16Q191.88-14.6 193.48-12.75 195.08-10.9 195.08-7.8L195.08-7.8Q195.08-3.8 192.25-1.48 189.43 0.85 184.93 0.85L184.93 0.85Q182.13 0.85 179.68-0.18 177.23-1.2 175.48-3.05L175.48-3.05 179.03-6.95Q182.03-4.5 184.53-4.5L184.53-4.5Q185.88-4.5 186.65-5.2 187.43-5.9 187.43-7.15L187.43-7.15Q187.43-8.55 186.55-9.38 185.68-10.2 182.98-11.3L182.98-11.3Q179.58-12.7 178.08-14.53 176.58-16.35 176.58-19.2L176.58-19.2Q176.58-22.8 179.08-25.1 181.58-27.4 185.93-27.4L185.93-27.4ZM216.18-7.05Q216.18-5.8 216.48-5.2 216.78-4.6 217.53-4.25L217.53-4.25 215.98 0.7Q213.83 0.5 212.45-0.33 211.08-1.15 210.33-2.9L210.33-2.9Q208.03 0.85 203.78 0.85L203.78 0.85Q200.48 0.85 198.53-1.43 196.58-3.7 196.58-7.45L196.58-7.45Q196.58-11.8 199.28-14.08 201.98-16.35 207.18-16.35L207.18-16.35 208.78-16.35 208.78-17.75Q208.78-20.15 208.05-21.08 207.33-22 205.48-22L205.48-22Q203.18-22 199.78-20.65L199.78-20.65 198.08-25.45Q200.13-26.4 202.45-26.9 204.78-27.4 206.88-27.4L206.88-27.4Q211.58-27.4 213.88-25.13 216.18-22.85 216.18-18.15L216.18-18.15 216.18-7.05ZM206.08-4.5Q206.93-4.5 207.63-5.15 208.33-5.8 208.78-7L208.78-7 208.78-12.15 207.88-12.15Q205.83-12.15 204.9-11.18 203.98-10.2 203.98-8.1L203.98-8.1Q203.98-6.35 204.53-5.43 205.08-4.5 206.08-4.5L206.08-4.5ZM234.37-27.4Q237.22-27.4 238.85-25.35 240.47-23.3 240.47-19.85L240.47-19.85 240.47 0 232.92 0 232.92-19.05Q232.92-21.65 231.47-21.65L231.47-21.65Q230.02-21.65 228.32-18.45L228.32-18.45 228.32 0 220.77 0 220.77-26.55 227.32-26.55 227.87-23.4Q229.17-25.4 230.72-26.4 232.27-27.4 234.37-27.4L234.37-27.4ZM254.07-34.65L272.37-34.65 271.57-29.05 261.92-29.05 261.92-20.35 270.42-20.35 270.42-14.85 261.92-14.85 261.92-5.7 272.22-5.7 272.22 0 254.07 0 254.07-34.65ZM288.12-26.55L295.42-26.55 288.82 0 279.92 0 273.12-26.55 280.82-26.55 284.37-5.75 288.12-26.55ZM317.61-13.8Q317.61-12.2 317.46-11.05L317.46-11.05 303.96-11.05Q304.21-7.45 305.29-6.08 306.36-4.7 308.41-4.7L308.41-4.7Q309.76-4.7 311.01-5.23 312.26-5.75 313.71-6.85L313.71-6.85 316.81-2.75Q313.11 0.85 307.86 0.85L307.86 0.85Q302.26 0.85 299.36-2.83 296.46-6.5 296.46-13.1L296.46-13.1Q296.46-19.7 299.24-23.55 302.01-27.4 307.16-27.4L307.16-27.4Q312.06-27.4 314.84-23.93 317.61-20.45 317.61-13.8L317.61-13.8ZM310.26-15.6L310.26-15.95Q310.26-19.35 309.59-20.88 308.91-22.4 307.21-22.4L307.21-22.4Q305.71-22.4 304.94-20.93 304.16-19.45 303.96-15.6L303.96-15.6 310.26-15.6ZM334.51-27.4Q337.36-27.4 338.99-25.35 340.61-23.3 340.61-19.85L340.61-19.85 340.61 0 333.06 0 333.06-19.05Q333.06-21.65 331.61-21.65L331.61-21.65Q330.16-21.65 328.46-18.45L328.46-18.45 328.46 0 320.91 0 320.91-26.55 327.46-26.55 328.01-23.4Q329.31-25.4 330.86-26.4 332.41-27.4 334.51-27.4L334.51-27.4ZM356.96-5.85L359.46-1.25Q358.21-0.2 356.56 0.33 354.91 0.85 353.21 0.85L353.21 0.85Q349.36 0.85 347.41-1.35 345.46-3.55 345.46-7.25L345.46-7.25 345.46-21.25 342.71-21.25 342.71-26.55 345.46-26.55 345.46-32.35 353.01-33.2 353.01-26.55 357.96-26.55 357.16-21.25 353.01-21.25 353.01-7.3Q353.01-5.15 354.81-5.15L354.81-5.15Q355.81-5.15 356.96-5.85L356.96-5.85ZM382.8-35.5Q385.55-35.5 387.78-34.55 390-33.6 391.95-31.7L391.95-31.7 388.3-27.4Q387.05-28.5 385.88-29.08 384.7-29.65 383.35-29.65L383.35-29.65Q380.6-29.65 379.15-26.83 377.7-24 377.7-17.4L377.7-17.4Q377.7-10.95 379.18-8.1 380.65-5.25 383.4-5.25L383.4-5.25Q384.9-5.25 386-5.85 387.1-6.45 388.7-7.75L388.7-7.75 392.25-3.55Q390.45-1.6 388.05-0.38 385.65 0.85 382.7 0.85L382.7 0.85Q376.7 0.85 373.13-3.75 369.55-8.35 369.55-17.4L369.55-17.4Q369.55-23.35 371.23-27.4 372.9-31.45 375.9-33.48 378.9-35.5 382.8-35.5L382.8-35.5ZM414.8-13.8Q414.8-12.2 414.65-11.05L414.65-11.05 401.15-11.05Q401.4-7.45 402.48-6.08 403.55-4.7 405.6-4.7L405.6-4.7Q406.95-4.7 408.2-5.23 409.45-5.75 410.9-6.85L410.9-6.85 414-2.75Q410.3 0.85 405.05 0.85L405.05 0.85Q399.45 0.85 396.55-2.83 393.65-6.5 393.65-13.1L393.65-13.1Q393.65-19.7 396.43-23.55 399.2-27.4 404.35-27.4L404.35-27.4Q409.25-27.4 412.03-23.93 414.8-20.45 414.8-13.8L414.8-13.8ZM407.45-15.6L407.45-15.95Q407.45-19.35 406.78-20.88 406.1-22.4 404.4-22.4L404.4-22.4Q402.9-22.4 402.13-20.93 401.35-19.45 401.15-15.6L401.15-15.6 407.45-15.6ZM431.7-27.4Q434.55-27.4 436.17-25.35 437.8-23.3 437.8-19.85L437.8-19.85 437.8 0 430.25 0 430.25-19.05Q430.25-21.65 428.8-21.65L428.8-21.65Q427.35-21.65 425.65-18.45L425.65-18.45 425.65 0 418.1 0 418.1-26.55 424.65-26.55 425.2-23.4Q426.5-25.4 428.05-26.4 429.6-27.4 431.7-27.4L431.7-27.4ZM454.15-5.85L456.65-1.25Q455.4-0.2 453.75 0.33 452.1 0.85 450.4 0.85L450.4 0.85Q446.55 0.85 444.6-1.35 442.65-3.55 442.65-7.25L442.65-7.25 442.65-21.25 439.9-21.25 439.9-26.55 442.65-26.55 442.65-32.35 450.2-33.2 450.2-26.55 455.15-26.55 454.35-21.25 450.2-21.25 450.2-7.3Q450.2-5.15 452-5.15L452-5.15Q453-5.15 454.15-5.85L454.15-5.85ZM471.19-27.3Q472.24-27.3 473.29-26.9L473.29-26.9 472.04-19.65Q471.14-19.95 470.19-19.95L470.19-19.95Q468.34-19.95 467.42-18.53 466.49-17.1 465.89-14.25L465.89-14.25 465.89 0 458.34 0 458.34-26.55 464.89-26.55 465.44-22.2Q467.34-27.3 471.19-27.3L471.19-27.3ZM495.44-13.8Q495.44-12.2 495.29-11.05L495.29-11.05 481.79-11.05Q482.04-7.45 483.12-6.08 484.19-4.7 486.24-4.7L486.24-4.7Q487.59-4.7 488.84-5.23 490.09-5.75 491.54-6.85L491.54-6.85 494.64-2.75Q490.94 0.85 485.69 0.85L485.69 0.85Q480.09 0.85 477.19-2.83 474.29-6.5 474.29-13.1L474.29-13.1Q474.29-19.7 477.07-23.55 479.84-27.4 484.99-27.4L484.99-27.4Q489.89-27.4 492.67-23.93 495.44-20.45 495.44-13.8L495.44-13.8ZM488.09-15.6L488.09-15.95Q488.09-19.35 487.42-20.88 486.74-22.4 485.04-22.4L485.04-22.4Q483.54-22.4 482.77-20.93 481.99-19.45 481.79-15.6L481.79-15.6 488.09-15.6Z" opacity="1" transform="matrix(1,0,0,1,0,0)" fill="#111111" class="undefined-text-0" data-fill-palette-color="primary" id="text-0"></path></svg></g></svg></g><g transform="matrix(1,0,0,1,0,45.494082897066235)"><svg viewBox="0 0 395.52 38.19625042847061" height="38.19625042847061" width="395.52"><path d="M395.52 0l-6.366 19.098 6.366 19.098h-395.52l6.366-19.098-6.366-19.098z" data-fill-palette-color="tertiary" opacity="1" fill="#111111"></path><g transform="matrix(1,0,0,1,133.37237602995694,7.295483831837887)"><svg width="128.7752479400861" viewBox="2.25 -22.399999618530273 122.19000244140625 22.399999618530273" height="23.605282764794836" data-palette-color="#ffffff"><path d="M11.95 0L9.45 0Q5.65 0 3.95-1.78 2.25-3.55 2.25-6.65L2.25-6.65Q2.25-9.9 4.03-11.65 5.8-13.4 9.45-13.4L9.45-13.4 12-13.4Q15.75-13.4 18.75-13.2 21.75-13 23.7-12.8L23.7-12.8 23.7-16.1Q23.7-16.55 23.6-17.03 23.5-17.5 23-17.8 22.5-18.1 21.3-18.1L21.3-18.1 18.8-18.1Q13.35-18.1 9.7-17.93 6.05-17.75 4.75-17.6L4.75-17.6 4.2-21.4Q4.2-22.1 8-22.25 11.8-22.4 20.7-22.4L20.7-22.4 23.2-22.4Q25.7-22.4 27.05-21.7 28.4-21 28.98-19.95 29.55-18.9 29.68-17.82 29.8-16.75 29.8-16L29.8-16 29.8 0 25.7 0 23.75-1Q21.65-0.65 18.7-0.33 15.75 0 11.95 0L11.95 0ZM10.75-4.3L10.75-4.3 22.2-4.3Q23.3-4.3 23.5-4.5 23.7-4.7 23.7-5.75L23.7-5.75 23.7-9.6 10.75-9.6Q9.4-9.6 8.88-8.95 8.35-8.3 8.35-6.9L8.35-6.9Q8.35-5.5 8.95-4.9 9.55-4.3 10.75-4.3ZM55.35 0L41.2 0Q37.85 0 36.45-0.35 35.05-0.7 35.05-1.05L35.05-1.05 36.55-4.8Q38-4.65 41.87-4.48 45.75-4.3 51.45-4.3L51.45-4.3 53.95-4.3Q55.2-4.3 55.52-4.98 55.85-5.65 55.85-6.8L55.85-6.8Q55.85-7.95 55.47-8.65 55.1-9.35 53.95-9.35L53.95-9.35 41.65-9.35Q38.15-9.35 36.6-10.68 35.05-12 35.05-14.65L35.05-14.65 35.05-16.65Q35.05-17.35 35.2-18.3 35.35-19.25 35.95-20.2 36.55-21.15 37.9-21.78 39.25-22.4 41.65-22.4L41.65-22.4 55.45-22.4Q58.45-22.4 59.7-22.05 60.95-21.7 60.95-21.35L60.95-21.35 60.45-17.6Q59-17.75 55.1-17.93 51.2-18.1 45.55-18.1L45.55-18.1 43.05-18.1Q41.8-18.1 41.47-17.43 41.15-16.75 41.15-15.85L41.15-15.85Q41.15-14.9 41.47-14.28 41.8-13.65 43.05-13.65L43.05-13.65 55.35-13.65Q58.75-13.65 60.35-12.25 61.95-10.85 61.95-8.7L61.95-8.7 61.95-5.75Q61.95-4.85 61.82-3.85 61.7-2.85 61.1-1.98 60.5-1.1 59.15-0.55 57.8 0 55.35 0L55.35 0ZM83.6 0L73.55 0Q71.05 0 69.7-0.65 68.35-1.3 67.77-2.3 67.2-3.3 67.07-4.4 66.95-5.5 66.95-6.4L66.95-6.4 66.95-16Q66.95-16.75 67.07-17.82 67.2-18.9 67.77-19.95 68.35-21 69.72-21.7 71.1-22.4 73.55-22.4L73.55-22.4 84.3-22.4Q87.6-22.4 89.47-21.78 91.35-21.15 92.12-19.75 92.9-18.35 92.9-16L92.9-16 92.9-8.6 84.15-8.6Q79.65-8.6 76.82-8.8 74-9 73.05-9.05L73.05-9.05 73.05-6.3Q73-4.3 75.45-4.3L75.45-4.3 78-4.3Q80.7-4.3 83.27-4.38 85.85-4.45 88-4.58 90.15-4.7 91.45-4.8L91.45-4.8 93.45-1.55Q93.45 0 83.6 0L83.6 0ZM73.05-16.1L73.05-12.9 86.8-12.9 86.8-16.1Q86.8-17.1 86.57-17.5 86.35-17.9 85.25-18 84.15-18.1 81.5-18.1L81.5-18.1 75.45-18.1Q73.05-18.1 73.05-16.1L73.05-16.1ZM114.59 0L104.54 0Q102.04 0 100.69-0.65 99.34-1.3 98.77-2.3 98.19-3.3 98.07-4.4 97.94-5.5 97.94-6.4L97.94-6.4 97.94-16Q97.94-16.75 98.07-17.82 98.19-18.9 98.77-19.95 99.34-21 100.72-21.7 102.09-22.4 104.54-22.4L104.54-22.4 111.49-22.4Q117.74-22.4 120.37-22.08 122.99-21.75 122.99-21.4L122.99-21.4 121.99-17.6Q120.59-17.7 118.44-17.82 116.29-17.95 113.82-18.03 111.34-18.1 108.99-18.1L108.99-18.1 106.44-18.1Q104.04-18.1 104.04-16.1L104.04-16.1 104.04-6.3Q103.99-4.3 106.44-4.3L106.44-4.3 108.99-4.3Q111.69-4.3 114.27-4.38 116.84-4.45 118.99-4.58 121.14-4.7 122.44-4.8L122.44-4.8 124.44-1.55Q124.44 0 114.59 0L114.59 0Z" opacity="1" transform="matrix(1,0,0,1,0,0)" fill="#ffffff" class="undefined-text-1" data-fill-palette-color="quaternary" id="text-1"></path></svg></g></svg></g></svg></g></svg></g><g></g></svg></g><defs></defs></svg><rect width="395.52" height="83.69033332553686" fill="none" stroke="none" visibility="hidden"></rect></g></svg></g></svg>